<?xml version="1.0" encoding="utf-8"?>
<!-- Generator: Adobe Illustrator 23.1.1, SVG Export Plug-In . SVG Version: 6.00 Build 0)  -->
<svg version="1.1" id="Layer_1" xmlns="http://www.w3.org/2000/svg" xmlns:xlink="http://www.w3.org/1999/xlink" x="0px" y="0px"
	 viewBox="0 0 150 18.8" style="enable-background:new 0 0 150 18.8;" xml:space="preserve">
<style type="text/css">
	.st0{fill:#FFFFFF;}
</style>
<g>
	<g>
		<path class="st0" d="M24.6,9.5L24.3,11c-0.2,1.4-1.2,2.2-2.8,2.2h-2c-0.2,0-0.3-0.1-0.2-0.3l1-5.5c0-0.2,0.1-0.3,0.3-0.3h1.9
			C24.1,7.1,24.8,8.1,24.6,9.5z M22.4,8.1h-1.1l-0.7,4h1.1c0.9,0,1.5-0.4,1.6-1.2l0.3-1.6C23.7,8.6,23.3,8.1,22.4,8.1z"/>
		<path class="st0" d="M29.5,7.4l-0.1,0.4c0,0.2-0.1,0.3-0.3,0.3h-2.6l-0.3,1.5h2.2c0.2,0,0.3,0.1,0.2,0.3l-0.1,0.4
			c0,0.2-0.1,0.3-0.3,0.3H26l-0.3,1.6h2.7c0.2,0,0.3,0.1,0.2,0.3l-0.1,0.4c0,0.2-0.1,0.3-0.3,0.3h-3.5c-0.2,0-0.3-0.1-0.2-0.3l1-5.5
			c0-0.2,0.1-0.3,0.3-0.3h3.4C29.5,7.1,29.5,7.2,29.5,7.4z"/>
		<path class="st0" d="M34.7,7.4l-1,5.5c0,0.2-0.1,0.3-0.3,0.3H33c-0.1,0-0.2,0-0.3-0.1l-1.5-3.1c-0.3-0.6-0.4-1.4-0.4-1.4h-0.1
			c0,0.1,0,0.9-0.1,1.7l-0.5,2.7c0,0.2-0.1,0.3-0.3,0.3h-0.5c-0.2,0-0.3-0.1-0.2-0.3l1-5.5c0-0.2,0.1-0.3,0.3-0.3h0.5
			c0.2,0,0.2,0.1,0.3,0.1l1.5,3.1c0.3,0.6,0.4,1.4,0.5,1.4h0.1c0-0.1,0-0.9,0.1-1.7l0.5-2.6c0-0.2,0.1-0.3,0.3-0.3h0.5
			C34.7,7.1,34.8,7.2,34.7,7.4z"/>
		<path class="st0" d="M40.2,7.4l-3,5.5c-0.1,0.2-0.2,0.2-0.4,0.2h-0.5c-0.2,0-0.3,0-0.3-0.2L35,7.4c0-0.2,0-0.3,0.2-0.3h0.4
			c0.3,0,0.4,0.1,0.5,0.3l0.6,3.6c0.1,0.4,0.1,0.9,0.1,0.9h0.1c0,0,0.2-0.5,0.4-0.9l1.9-3.6c0.1-0.2,0.2-0.3,0.5-0.3h0.4
			C40.3,7.1,40.3,7.2,40.2,7.4z"/>
		<path class="st0" d="M44.5,7.4l-0.1,0.4c0,0.2-0.1,0.3-0.3,0.3h-2.6l-0.3,1.5h2.2c0.2,0,0.3,0.1,0.2,0.3l-0.1,0.4
			c0,0.2-0.1,0.3-0.3,0.3H41l-0.3,1.6h2.7c0.2,0,0.3,0.1,0.2,0.3l-0.1,0.4c0,0.2-0.1,0.3-0.3,0.3h-3.5c-0.2,0-0.3-0.1-0.2-0.3l1-5.5
			c0-0.2,0.1-0.3,0.3-0.3h3.4C44.4,7.1,44.5,7.2,44.5,7.4z"/>
		<path class="st0" d="M49.2,9.1c-0.1,0.9-0.7,1.4-1.4,1.6c0.1,0.1,0.2,0.2,0.2,0.4l0.6,1.8c0.1,0.2,0,0.3-0.2,0.3H48
			c-0.4,0-0.5,0-0.5-0.3L47,11.5c-0.1-0.5-0.3-0.6-0.8-0.6h-0.7l-0.4,2c0,0.2-0.1,0.3-0.3,0.3h-0.5c-0.2,0-0.3-0.1-0.2-0.3l1-5.5
			c0-0.2,0.1-0.3,0.3-0.3h2.4C48.9,7.1,49.5,7.9,49.2,9.1z M47.4,8.1h-1.5l-0.3,1.7h1.5c0.6,0,0.9-0.3,1-0.9
			C48.2,8.4,48,8.1,47.4,8.1z"/>
		<path class="st0" d="M57.3,7.4l-1,5.5c0,0.2-0.1,0.3-0.3,0.3h-0.4c-0.2,0-0.3-0.1-0.2-0.3l0.5-2.6c0.1-0.5,0.2-1,0.5-1.7h-0.1
			c-0.3,0.6-0.6,1.1-1,1.6l-1.1,1.5c-0.1,0.2-0.2,0.2-0.4,0.2h-0.2c-0.2,0-0.2,0-0.3-0.2l-0.6-1.5c-0.2-0.5-0.3-0.9-0.4-1.5h-0.1
			c0,0.7,0,1.2-0.1,1.7l-0.5,2.6c0,0.2-0.1,0.3-0.3,0.3h-0.5c-0.2,0-0.3-0.1-0.2-0.3l1-5.5c0-0.2,0.1-0.3,0.3-0.3h0.4
			c0.2,0,0.3,0,0.4,0.2l1.2,3.2l2.3-3.2c0.1-0.2,0.2-0.2,0.4-0.2H57C57.2,7.1,57.3,7.2,57.3,7.4z"/>
		<path class="st0" d="M60.3,7c1.6,0,2.3,0.9,2,2.3l-0.3,1.9c-0.2,1.4-1.2,2.1-2.8,2.1c-1.6,0-2.3-0.9-2.1-2.3l0.3-1.9
			C57.8,7.8,58.8,7,60.3,7z M60.2,8c-0.9,0-1.4,0.4-1.6,1.2l-0.3,1.9c-0.1,0.8,0.3,1.2,1.1,1.2c0.9,0,1.4-0.4,1.6-1.2l0.3-1.9
			C61.5,8.4,61.1,8,60.2,8z"/>
		<path class="st0" d="M67.5,8.8c-0.1,0.6-0.4,1-0.9,1.2l0,0c0.5,0.2,0.7,0.8,0.6,1.5c-0.2,1.1-1.1,1.6-2.2,1.6h-2.4
			c-0.2,0-0.3-0.1-0.2-0.3l1-5.5c0-0.2,0.1-0.3,0.3-0.3H66C67.1,7.1,67.6,7.8,67.5,8.8z M65.4,10.6h-1.6l-0.3,1.6h1.6
			c0.5,0,0.9-0.3,1-0.8C66.2,10.9,66,10.6,65.4,10.6z M65.7,8.1h-1.5L64,9.6h1.5c0.5,0,0.8-0.2,0.9-0.7C66.4,8.4,66.2,8.1,65.7,8.1z
			"/>
		<path class="st0" d="M68.7,7.1h0.5c0.2,0,0.3,0.1,0.2,0.3l-1,5.5c0,0.2-0.1,0.3-0.3,0.3h-0.5c-0.2,0-0.3-0.1-0.2-0.3l1-5.5
			C68.4,7.2,68.5,7.1,68.7,7.1z"/>
		<path class="st0" d="M71.3,7.4l-0.8,4.7h2.4c0.2,0,0.3,0.1,0.2,0.3l-0.1,0.4c0,0.2-0.1,0.3-0.3,0.3h-3.2c-0.2,0-0.3-0.1-0.2-0.3
			l1-5.5c0-0.2,0.1-0.3,0.3-0.3h0.5C71.3,7.1,71.3,7.2,71.3,7.4z"/>
		<path class="st0" d="M78.2,7.4l-0.1,0.4c0,0.2-0.1,0.3-0.3,0.3h-2.6L75,9.6h2.2c0.2,0,0.3,0.1,0.2,0.3l-0.1,0.4
			c0,0.2-0.1,0.3-0.3,0.3h-2.2l-0.3,1.6h2.7c0.2,0,0.3,0.1,0.2,0.3l-0.1,0.4c0,0.2-0.1,0.3-0.3,0.3h-3.5c-0.2,0-0.3-0.1-0.2-0.3
			l1-5.5c0-0.2,0.1-0.3,0.3-0.3H78C78.2,7.1,78.3,7.2,78.2,7.4z"/>
		<path class="st0" d="M83.6,13.2h-0.5c-0.4,0-0.5,0-0.5-0.3l-0.6-1.7c-0.2-0.5-0.3-0.6-0.9-0.6h-0.4l-0.4,2.3
			c0,0.2-0.1,0.3-0.3,0.3h-0.5c-0.2,0-0.3-0.1-0.2-0.3l1-5.5c0-0.2,0.1-0.3,0.3-0.3h0.5c0.2,0,0.3,0.1,0.2,0.3l-0.4,2.2h0.3h0.1
			l2.1-2.3c0.2-0.2,0.3-0.2,0.6-0.2h0.5c0.2,0,0.2,0.1,0.1,0.3l-2.4,2.4c0.4,0.2,0.6,0.5,0.8,0.9l0.7,2.1
			C83.9,13,83.9,13.2,83.6,13.2z"/>
		<path class="st0" d="M89.9,7.4l-1,5.5c0,0.2-0.1,0.3-0.3,0.3h-0.5c-0.1,0-0.2,0-0.3-0.1l-1.5-3.1c-0.3-0.6-0.4-1.4-0.4-1.4h-0.1
			c0,0.1,0,0.9-0.1,1.7l-0.5,2.7c0,0.2-0.1,0.3-0.3,0.3h-0.5c-0.2,0-0.3-0.1-0.2-0.3l1-5.5c0-0.2,0.1-0.3,0.3-0.3h0.5
			c0.2,0,0.2,0.1,0.3,0.1l1.5,3.1c0.3,0.6,0.4,1.4,0.5,1.4h0.1c0-0.1,0-0.9,0.1-1.7l0.5-2.6c0-0.2,0.1-0.3,0.3-0.3h0.5
			C89.8,7.1,89.9,7.2,89.9,7.4z"/>
		<path class="st0" d="M91,7.1h0.5c0.2,0,0.3,0.1,0.2,0.3l-1,5.5c0,0.2-0.1,0.3-0.3,0.3h-0.5c-0.2,0-0.3-0.1-0.2-0.3l1-5.5
			C90.7,7.2,90.8,7.1,91,7.1z"/>
		<path class="st0" d="M96.4,7.4l-0.1,0.4c0,0.2-0.1,0.3-0.3,0.3h-2.6l-0.3,1.6h2.2c0.2,0,0.3,0.1,0.2,0.3l-0.1,0.4
			c0,0.2-0.1,0.3-0.3,0.3H93l-0.4,2.2c0,0.2-0.1,0.3-0.3,0.3h-0.5c-0.2,0-0.3-0.1-0.2-0.3l1-5.5c0-0.2,0.1-0.3,0.3-0.3h3.4
			C96.4,7.1,96.5,7.2,96.4,7.4z"/>
		<path class="st0" d="M100.8,7.4l-0.1,0.4c0,0.2-0.1,0.3-0.3,0.3h-2.6l-0.3,1.5h2.2c0.2,0,0.3,0.1,0.2,0.3l-0.1,0.4
			c0,0.2-0.1,0.3-0.3,0.3h-2.2l-0.3,1.6h2.7c0.2,0,0.3,0.1,0.2,0.3l-0.1,0.4c0,0.2-0.1,0.3-0.3,0.3h-3.5c-0.2,0-0.3-0.1-0.2-0.3
			l1-5.5c0-0.2,0.1-0.3,0.3-0.3h3.4C100.8,7.1,100.9,7.2,100.8,7.4z"/>
		<path class="st0" d="M104.9,7c1.2,0,1.7,0.6,2,1.3c0.1,0.2,0,0.3-0.2,0.4l-0.5,0.2c-0.2,0.1-0.3,0.1-0.3-0.1
			c-0.1-0.4-0.4-0.7-1.1-0.7c-0.8,0-1.3,0.2-1.4,0.8c-0.1,0.6,0.6,0.7,1.3,0.8c1,0.1,2.1,0.5,1.8,1.9c-0.2,1.1-1.1,1.7-2.7,1.7
			c-1.3,0-2-0.5-2.1-1.4c0-0.2,0-0.3,0.2-0.4l0.5-0.2c0.2-0.1,0.3,0,0.3,0.2c0.1,0.5,0.5,0.8,1.2,0.8c0.9,0,1.4-0.3,1.5-0.9
			c0.1-0.6-0.5-0.7-1.2-0.8c-1-0.1-2.2-0.4-2-1.9C102.5,7.6,103.4,7,104.9,7z"/>
		<path class="st0" d="M112.4,7.4l-1,5.5c0,0.2-0.1,0.3-0.3,0.3h-0.5c-0.2,0-0.3-0.1-0.2-0.3l0.4-2.3h-2.5l-0.4,2.3
			c0,0.2-0.1,0.3-0.3,0.3H107c-0.2,0-0.3-0.1-0.2-0.3l1-5.5c0-0.2,0.1-0.3,0.3-0.3h0.5c0.2,0,0.3,0.1,0.2,0.3l-0.4,2.2h2.5l0.4-2.2
			c0-0.2,0.1-0.3,0.3-0.3h0.5C112.3,7.1,112.4,7.2,112.4,7.4z"/>
		<path class="st0" d="M116.8,13.2h-0.4c-0.4,0-0.5-0.1-0.5-0.3l-0.2-1.1h-2.3l-0.6,1.1c-0.1,0.2-0.2,0.3-0.6,0.3h-0.4
			c-0.2,0-0.3-0.1-0.1-0.3l3.1-5.5c0.1-0.2,0.2-0.2,0.4-0.2h0.5c0.2,0,0.3,0,0.3,0.2l1.1,5.5C117.1,13.1,117,13.2,116.8,13.2z
			 M115.2,8.1L115.2,8.1c-0.1,0-0.2,0.5-0.4,1l-1,1.8h1.7l-0.3-1.8C115.2,8.6,115.2,8.1,115.2,8.1z"/>
		<path class="st0" d="M122.5,9.1c-0.1,0.9-0.7,1.4-1.4,1.6c0.1,0.1,0.2,0.2,0.2,0.4l0.6,1.8c0.1,0.2,0,0.3-0.2,0.3h-0.5
			c-0.4,0-0.5,0-0.5-0.3l-0.5-1.4c-0.1-0.5-0.3-0.6-0.8-0.6h-0.7l-0.4,2c0,0.2-0.1,0.3-0.3,0.3h-0.5c-0.2,0-0.3-0.1-0.2-0.3l1-5.5
			c0-0.2,0.1-0.3,0.3-0.3h2.4C122.1,7.1,122.8,7.9,122.5,9.1z M120.7,8.1h-1.5l-0.3,1.7h1.5c0.6,0,0.9-0.3,1-0.9
			C121.5,8.4,121.3,8.1,120.7,8.1z"/>
		<path class="st0" d="M127.6,9.2c-0.2,1.2-1.1,1.9-2.3,1.9h-1.5l-0.3,1.8c0,0.2-0.1,0.3-0.3,0.3h-0.5c-0.2,0-0.3-0.1-0.2-0.3l1-5.5
			c0-0.2,0.1-0.3,0.3-0.3h2.3C127.2,7.1,127.8,8,127.6,9.2z M126.5,9.1c0.1-0.6-0.2-1-0.8-1h-1.4l-0.3,1.9h1.4
			C126,10.1,126.4,9.7,126.5,9.1z"/>
		<path class="st0" d="M132.3,7.4l-0.1,0.4c0,0.2-0.1,0.3-0.3,0.3h-2.6L129,9.6h2.2c0.2,0,0.3,0.1,0.2,0.3l-0.1,0.4
			c0,0.2-0.1,0.3-0.3,0.3h-2.2l-0.3,1.6h2.7c0.2,0,0.3,0.1,0.2,0.3l-0.1,0.4c0,0.2-0.1,0.3-0.3,0.3h-3.5c-0.2,0-0.3-0.1-0.2-0.3
			l1-5.5c0-0.2,0.1-0.3,0.3-0.3h3.4C132.3,7.1,132.3,7.2,132.3,7.4z"/>
		<path class="st0" d="M137.6,7.4l-1,5.5c0,0.2-0.1,0.3-0.3,0.3h-0.5c-0.1,0-0.2,0-0.3-0.1L134,9.9c-0.3-0.6-0.4-1.4-0.4-1.4h-0.1
			c0,0.1,0,0.9-0.1,1.7l-0.5,2.7c0,0.2-0.1,0.3-0.3,0.3h-0.5c-0.2,0-0.3-0.1-0.2-0.3l1-5.5c0-0.2,0.1-0.3,0.3-0.3h0.5
			c0.2,0,0.2,0.1,0.3,0.1l1.5,3.1c0.3,0.6,0.4,1.4,0.5,1.4h0.1c0-0.1,0-0.9,0.1-1.7l0.5-2.6c0-0.2,0.1-0.3,0.3-0.3h0.5
			C137.5,7.1,137.6,7.2,137.6,7.4z"/>
		<path class="st0" d="M138.7,7.1h0.5c0.2,0,0.3,0.1,0.2,0.3l-1,5.5c0,0.2-0.1,0.3-0.3,0.3h-0.5c-0.2,0-0.3-0.1-0.2-0.3l1-5.5
			C138.4,7.2,138.5,7.1,138.7,7.1z"/>
		<path class="st0" d="M144.9,7.4l-1,5.5c0,0.2-0.1,0.3-0.3,0.3h-0.5c-0.1,0-0.2,0-0.3-0.1l-1.5-3.1c-0.3-0.6-0.4-1.4-0.4-1.4h-0.1
			c0,0.1,0,0.9-0.1,1.7l-0.5,2.7c0,0.2-0.1,0.3-0.3,0.3h-0.5c-0.2,0-0.3-0.1-0.2-0.3l1-5.5c0-0.2,0.1-0.3,0.3-0.3h0.5
			c0.2,0,0.2,0.1,0.3,0.1l1.5,3.1c0.3,0.6,0.4,1.4,0.5,1.4h0.1c0-0.1,0-0.9,0.1-1.7l0.5-2.6c0-0.2,0.1-0.3,0.3-0.3h0.5
			C144.9,7.1,144.9,7.2,144.9,7.4z"/>
		<path class="st0" d="M149.9,10.1l-0.2,1.2c-0.2,1.2-1.2,1.9-2.8,1.9c-1.6,0-2.3-0.9-2-2.3l0.3-1.9c0.2-1.4,1.2-2.1,2.8-2.1
			c1.2,0,1.9,0.6,2,1.4c0,0.2,0,0.3-0.2,0.4L149.3,9C149.1,9,149,9,149,8.8c-0.1-0.5-0.5-0.8-1.2-0.8c-0.9,0-1.4,0.4-1.6,1.2
			l-0.3,1.9c-0.1,0.8,0.3,1.2,1.1,1.2s1.4-0.4,1.6-1l0.1-0.4h-1.3c-0.2,0-0.3-0.1-0.2-0.3l0.1-0.4c0-0.2,0.1-0.3,0.3-0.3h2
			C149.8,9.9,149.9,9.9,149.9,10.1z"/>
	</g>
</g>
<g>
	<path class="st0" d="M8.7,4C8.9,4,9,3.9,9,3.7c0-0.2-0.1-0.3-0.3-0.3c-0.2,0-0.3,0.1-0.3,0.3C8.5,3.9,8.6,4,8.7,4z"/>
	<circle class="st0" cx="7.1" cy="6.6" r="0.2"/>
	<path class="st0" d="M8.6,1.1C4.2,1.1,0.7,4.7,0.7,9s3.5,7.9,7.9,7.9c0.8,0,1.7-0.1,2.4-0.4l-2.4-4.1c-0.1-0.1,0-0.2,0-0.2l5-3.3
		l0.1-0.1c0,0,0.1,0,0.1,0c0,0,0.1,0.1,0.1,0.1l1.9,3.2c0.4-1,0.7-2,0.7-3.1C16.5,4.7,13,1.1,8.6,1.1z M3,8.1C3,8,3.1,7.9,3.2,7.9
		h2.6C6,7.9,6,8,6,8.1C6,8.2,6,8.3,5.8,8.3H3.2C3.1,8.3,3,8.2,3,8.1z M4.6,10.4c0-0.1,0.1-0.2,0.2-0.2h2.2c0.1,0,0.2,0.1,0.2,0.2
		c0,0.1-0.1,0.2-0.2,0.2H4.8C4.7,10.6,4.6,10.5,4.6,10.4z M8.6,14c0.1,0,0.2,0.1,0.2,0.2c0,0.1-0.1,0.2-0.2,0.2H5.3
		c-0.1,0-0.2-0.1-0.2-0.2c0-0.1,0.1-0.2,0.2-0.2H8.6z M9.1,11.6c-0.1-0.2-0.3-0.3-0.4-0.6c-0.7-1-0.8-1.7-1-2.2
		C7.6,8.5,7.6,8.3,7.4,8C7.2,7.7,7,7.5,6.8,7.5C6.6,7.4,6.5,7.3,6.4,7.1l0,0C6.2,6.8,6.2,6.6,6.3,6.4C6.3,6.2,6.5,6,6.7,5.8
		c0.2-0.1,0.4-0.2,0.7-0.1C7.6,5.8,7.8,6,7.9,6.2l2.6,4.4L9.1,11.6z M11.2,10.1c-0.2-0.2-0.4-0.5-0.6-0.8c-0.8-1.3-1-2.1-1.2-2.8
		c-0.1-0.4-0.2-0.7-0.4-1C8.8,5.1,8.5,4.9,8.3,4.8C8.1,4.7,7.9,4.5,7.8,4.3l0,0C7.6,4,7.6,3.8,7.6,3.5C7.7,3.2,7.9,3,8.1,2.8
		C8.4,2.7,8.7,2.7,9,2.7C9.2,2.8,9.5,3,9.6,3.2L12.9,9L11.2,10.1z"/>
</g>
</svg>
