<?xml version="1.0" encoding="utf-8"?>
<!-- Generator: Adobe Illustrator 23.1.1, SVG Export Plug-In . SVG Version: 6.00 Build 0)  -->
<svg version="1.1" id="Layer_1" xmlns="http://www.w3.org/2000/svg" xmlns:xlink="http://www.w3.org/1999/xlink" x="0px" y="0px"
	 viewBox="0 0 44.5 43.7" style="enable-background:new 0 0 44.5 43.7;" xml:space="preserve">
<style type="text/css">
	.st0{fill:#FFFFFF;}
</style>
<g>
	<path class="st0" d="M22.2,8c0.4,0,0.7-0.3,0.8-0.8c0-0.4-0.3-0.8-0.8-0.8c-0.4,0-0.8,0.3-0.8,0.8C21.4,7.6,21.8,8,22.2,8z"/>
	<circle class="st0" cx="17.7" cy="15.2" r="0.6"/>
	<path class="st0" d="M21.8,0C9.8,0,0,9.8,0,21.8s9.8,21.8,21.8,21.8c2.3,0,4.6-0.4,6.7-1l-6.6-11.3c-0.1-0.2-0.1-0.5,0.1-0.6
		l13.8-9.1l0.2-0.1c0.1,0,0.3-0.1,0.4,0c0.1,0,0.2,0.1,0.3,0.2l5.2,8.9c1.2-2.7,1.8-5.6,1.8-8.7C43.7,9.8,33.9,0,21.8,0z M6.4,19.3
		c0-0.3,0.3-0.6,0.6-0.6h7.3c0.3,0,0.6,0.3,0.6,0.6s-0.3,0.6-0.6,0.6H6.9C6.6,19.9,6.4,19.6,6.4,19.3z M10.7,25.7
		c0-0.3,0.3-0.6,0.6-0.6h6c0.3,0,0.6,0.3,0.6,0.6c0,0.3-0.3,0.6-0.6,0.6h-6C10.9,26.2,10.7,26,10.7,25.7z M21.9,35.7
		c0.3,0,0.6,0.3,0.6,0.6s-0.3,0.6-0.6,0.6h-9.2c-0.3,0-0.6-0.3-0.6-0.6s0.3-0.6,0.6-0.6H21.9z M23.1,28.9c-0.3-0.4-0.7-1-1.1-1.5
		c-1.8-2.8-2.3-4.6-2.7-6.1c-0.2-0.9-0.4-1.5-0.8-2.2c-0.6-1-1.2-1.4-1.6-1.5c-0.5-0.2-1-0.6-1.2-1l0,0c-0.4-0.6-0.5-1.3-0.3-1.9
		c0.2-0.6,0.6-1.1,1.1-1.5c0.6-0.3,1.2-0.4,1.9-0.2c0.6,0.2,1.1,0.6,1.5,1.1l7.2,12.3L23.1,28.9z M29.1,24.8c-0.4-0.6-1-1.3-1.6-2.1
		c-2.3-3.5-2.9-5.8-3.4-7.7c-0.3-1.1-0.5-1.9-1-2.8c-0.7-1.3-1.5-1.8-2.1-2c-0.6-0.2-1.2-0.7-1.5-1.3l0-0.1
		c-0.4-0.7-0.5-1.5-0.3-2.3c0.2-0.8,0.7-1.4,1.4-1.8c0.7-0.4,1.5-0.5,2.3-0.3c0.8,0.2,1.4,0.7,1.8,1.4l9.2,15.9L29.1,24.8z"/>
</g>
</svg>
