<?xml version="1.0" encoding="utf-8"?>
<!-- Generator: Adobe Illustrator 23.1.1, SVG Export Plug-In . SVG Version: 6.00 Build 0)  -->
<svg version="1.1" id="Layer_1" xmlns="http://www.w3.org/2000/svg" xmlns:xlink="http://www.w3.org/1999/xlink" x="0px" y="0px"
	 viewBox="0 0 150 53.4" style="enable-background:new 0 0 150 53.4;" xml:space="preserve">
<style type="text/css">
	.st0{fill:#FFFFFF;}
</style>
<g>
	<path class="st0" d="M26.4,10.3c0.4,0,0.8-0.4,0.9-0.9c0-0.5-0.4-0.9-0.9-0.9c-0.5,0-0.9,0.4-0.9,0.9C25.5,9.9,25.9,10.3,26.4,10.3
		z"/>
	<circle class="st0" cx="21.2" cy="18.7" r="0.7"/>
	<path class="st0" d="M25.9,1C11.9,1,0.6,12.4,0.6,26.4s11.3,25.3,25.3,25.3c2.7,0,5.3-0.4,7.8-1.2L26,37.4
		c-0.2-0.2-0.1-0.6,0.1-0.7l16-10.6l0.2-0.2c0.1-0.1,0.3-0.1,0.4-0.1c0.1,0.1,0.3,0.2,0.3,0.3l6.1,10.3c1.3-3.1,2.1-6.5,2.1-10.1
		C51.3,12.4,39.9,1,25.9,1z M8,23.4c0-0.4,0.3-0.6,0.6-0.6h8.4c0.4,0,0.6,0.3,0.6,0.6c0,0.4-0.3,0.6-0.6,0.6H8.6
		C8.3,24.1,8,23.8,8,23.4z M13,30.8c0-0.4,0.3-0.6,0.6-0.6h6.9c0.4,0,0.6,0.3,0.6,0.6c0,0.4-0.3,0.6-0.6,0.6h-6.9
		C13.3,31.5,13,31.2,13,30.8z M26,42.5c0.4,0,0.6,0.3,0.6,0.6c0,0.4-0.3,0.6-0.6,0.6H15.3c-0.4,0-0.6-0.3-0.6-0.6
		c0-0.4,0.3-0.6,0.6-0.6H26z M27.4,34.5c-0.4-0.5-0.8-1.1-1.3-1.8c-2.1-3.2-2.6-5.4-3.1-7.1c-0.2-1-0.4-1.8-0.9-2.5
		c-0.7-1.1-1.4-1.6-1.9-1.8c-0.6-0.2-1.1-0.7-1.4-1.2l-0.1-0.1c-0.4-0.7-0.6-1.5-0.3-2.2c0.2-0.7,0.7-1.3,1.3-1.7
		c0.7-0.4,1.4-0.5,2.2-0.3c0.7,0.2,1.3,0.7,1.7,1.3L32,31.5L27.4,34.5z M34.4,29.8c-0.5-0.7-1.2-1.5-1.8-2.5c-2.6-4-3.4-6.7-3.9-8.9
		c-0.3-1.3-0.6-2.3-1.2-3.3c-0.8-1.5-1.8-2.1-2.4-2.3c-0.7-0.3-1.4-0.8-1.8-1.5l-0.1-0.1c-0.5-0.8-0.6-1.8-0.4-2.6
		c0.2-0.9,0.8-1.7,1.6-2.1c0.8-0.4,1.8-0.6,2.6-0.3c0.9,0.2,1.7,0.8,2.1,1.6l10.7,18.4L34.4,29.8z"/>
</g>
<g>
	<path class="st0" d="M71.5,10.8v3.9c0,4.4-2.8,7.2-7.9,7.2h-6.3c-0.8,0-1.1-0.3-1.1-1.1V4.7c0-0.8,0.3-1.1,1.1-1.1h6.3
		C68.7,3.6,71.5,6.4,71.5,10.8z M63.5,8.1h-2.1v9.3h2.1c2.1,0,3-1,3-2.8v-3.7C66.5,9.1,65.6,8.1,63.5,8.1z"/>
	<path class="st0" d="M85.6,4.7V7c0,0.8-0.3,1.1-1.1,1.1h-6.8v2.3h5.4c0.8,0,1.1,0.3,1.1,1.1v2.3c0,0.8-0.3,1.1-1.1,1.1h-5.4v2.5h7
		c0.8,0,1.1,0.3,1.1,1.1v2.3c0,0.8-0.3,1.1-1.1,1.1h-11c-0.8,0-1.1-0.3-1.1-1.1V4.7c0-0.8,0.3-1.1,1.1-1.1h10.8
		C85.3,3.6,85.6,3.9,85.6,4.7z"/>
	<path class="st0" d="M102.2,4.7v16.1c0,0.8-0.3,1.1-1.1,1.1h-2.9c-0.5,0-0.8-0.2-1.1-0.5l-4-6.1c-1.1-1.8-1.6-3-2.3-5.3h-0.2
		c0.5,2.5,0.8,3.8,0.8,6.6v4.2c0,0.8-0.3,1.1-1.1,1.1h-2.6c-0.8,0-1.1-0.3-1.1-1.1V4.7c0-0.8,0.3-1.1,1.1-1.1h3
		c0.6,0,0.8,0.2,1.1,0.5l4.2,6.6c1.1,1.8,1.3,2.8,2.2,4.7h0.2c-0.8-2.6-1.2-3.9-1.2-6.5V4.7c0-0.8,0.3-1.1,1.1-1.1h2.6
		C101.9,3.6,102.2,3.9,102.2,4.7z"/>
	<path class="st0" d="M119.8,4.7L114.1,21c-0.3,0.7-0.6,0.9-1.3,0.9h-3.2c-0.7,0-1.1-0.2-1.3-0.8l-5.7-16.4c-0.3-0.7,0-1.1,0.7-1.1
		h2.9c1.3,0,1.7,0.3,1.9,1.1l2.4,8.8c0.4,1.5,0.6,3.3,0.6,3.3h0.2c0,0,0.1-1.8,0.5-3.3l2.4-8.8c0.2-0.8,0.6-1.1,1.9-1.1h2.9
		C119.9,3.6,120.1,4,119.8,4.7z"/>
	<path class="st0" d="M133.2,4.7V7c0,0.8-0.3,1.1-1.1,1.1h-6.8v2.3h5.4c0.8,0,1.1,0.3,1.1,1.1v2.3c0,0.8-0.3,1.1-1.1,1.1h-5.4v2.5h7
		c0.8,0,1.1,0.3,1.1,1.1v2.3c0,0.8-0.3,1.1-1.1,1.1h-11c-0.8,0-1.1-0.3-1.1-1.1V4.7c0-0.8,0.3-1.1,1.1-1.1h10.8
		C132.9,3.6,133.2,3.9,133.2,4.7z"/>
	<path class="st0" d="M149.1,9.8c0,2.5-1,4.3-2.8,5.3c0.3,0.3,0.5,0.7,0.7,1.1l2.3,4.4c0.4,0.7,0.2,1.3-0.7,1.3h-2.8
		c-1.4,0-2-0.3-2.4-1.2l-1.6-3.5c-0.4-0.9-0.9-1.3-1.9-1.3h-0.6v5c0,0.8-0.3,1.1-1.1,1.1h-2.9c-0.8,0-1.1-0.3-1.1-1.1V4.7
		c0-0.8,0.3-1.1,1.1-1.1h7.3C146.6,3.6,149.1,5.9,149.1,9.8z M142.2,8.1h-2.8v3.4h2.8c1.1,0,1.7-0.7,1.7-1.7
		C143.9,8.8,143.3,8.1,142.2,8.1z"/>
</g>
<g>
	<path class="st0" d="M67.2,26.1v9.3c0,0.5-0.2,0.6-0.6,0.6h-1.6c-0.5,0-0.6-0.1-0.6-0.6v-2.1c0-1,0.1-1.9,0.7-3.9h-0.2
		c-0.1,0.5-0.7,1.8-1,2.4l-0.8,1.7c-0.2,0.3-0.3,0.4-0.7,0.4h-1c-0.4,0-0.5-0.1-0.7-0.4l-0.9-1.7c-0.3-0.6-0.8-1.9-0.9-2.4h-0.1
		c0.5,2.1,0.6,2.9,0.6,3.9v2.1c0,0.5-0.2,0.6-0.6,0.6H57c-0.5,0-0.6-0.1-0.6-0.6v-9.3c0-0.5,0.2-0.6,0.6-0.6h1.4
		c0.5,0,0.7,0.1,0.9,0.5l2.4,4.8l2.4-4.8c0.2-0.4,0.3-0.5,0.8-0.5h1.5C67,25.5,67.2,25.6,67.2,26.1z"/>
	<path class="st0" d="M72.4,25.2c2.9,0,4.6,1.6,4.6,4.2v2.7c0,2.6-1.6,4.2-4.6,4.2c-2.9,0-4.6-1.6-4.6-4.2v-2.7
		C67.8,26.8,69.5,25.2,72.4,25.2z M72.4,27.8c-1,0-1.6,0.5-1.6,1.4v2.9c0,0.9,0.6,1.4,1.6,1.4c1,0,1.6-0.5,1.6-1.4v-2.9
		C74,28.3,73.4,27.8,72.4,27.8z"/>
	<path class="st0" d="M86.1,28.3c0,1-0.3,1.7-1.1,2.2v0.1c0.9,0.4,1.5,1.3,1.5,2.6c0,1.9-1.6,2.9-3.6,2.9h-4.4
		c-0.5,0-0.6-0.2-0.6-0.6v-9.3c0-0.5,0.2-0.6,0.6-0.6h4.3C84.9,25.5,86.1,26.5,86.1,28.3z M82.2,27.8h-1.4v1.6h1.4
		c0.6,0,0.9-0.2,0.9-0.8S82.8,27.8,82.2,27.8z M82.5,31.9h-1.7v1.7h1.7c0.6,0,0.9-0.3,0.9-0.9C83.5,32.1,83.1,31.9,82.5,31.9z"/>
	<path class="st0" d="M87.9,25.5h1.7c0.4,0,0.6,0.1,0.6,0.6v9.3c0,0.4-0.1,0.6-0.6,0.6h-1.7c-0.4,0-0.6-0.1-0.6-0.6v-9.3
		C87.3,25.6,87.4,25.5,87.9,25.5z"/>
	<path class="st0" d="M94.3,26.1v7.3h3.6c0.5,0,0.6,0.1,0.6,0.6v1.3c0,0.5-0.2,0.6-0.6,0.6H92c-0.5,0-0.6-0.2-0.6-0.6v-9.3
		c0-0.5,0.2-0.6,0.6-0.6h1.7C94.1,25.5,94.3,25.6,94.3,26.1z"/>
	<path class="st0" d="M106.5,26.1v1.3c0,0.5-0.2,0.6-0.6,0.6H102v1.3h3.1c0.5,0,0.6,0.2,0.6,0.6v1.3c0,0.5-0.2,0.6-0.6,0.6H102v1.4
		h4c0.5,0,0.6,0.1,0.6,0.6v1.3c0,0.5-0.2,0.6-0.6,0.6h-6.3c-0.5,0-0.6-0.2-0.6-0.6v-9.3c0-0.5,0.2-0.6,0.6-0.6h6.2
		C106.4,25.5,106.5,25.6,106.5,26.1z"/>
	<path class="st0" d="M118.2,36h-1.6c-0.8,0-1.1-0.1-1.3-0.6l-1.3-2.7c-0.2-0.5-0.4-0.7-1-0.7h-0.3v3.4c0,0.5-0.1,0.6-0.6,0.6h-1.7
		c-0.5,0-0.6-0.2-0.6-0.6v-9.3c0-0.5,0.2-0.6,0.6-0.6h1.7c0.5,0,0.6,0.2,0.6,0.6v3.3h0.3l2.1-3.4c0.3-0.5,0.4-0.5,1.2-0.5h1.7
		c0.4,0,0.6,0.3,0.4,0.7l-2.7,4.3c0.4,0.3,0.7,0.6,0.9,1.1l2,3.7C118.8,35.7,118.7,36,118.2,36z"/>
	<path class="st0" d="M128,26.1v9.3c0,0.5-0.2,0.6-0.6,0.6h-1.7c-0.3,0-0.5-0.1-0.6-0.3l-2.3-3.5c-0.7-1-0.9-1.7-1.3-3.1h-0.1
		c0.3,1.4,0.5,2.2,0.5,3.8v2.4c0,0.5-0.2,0.6-0.6,0.6h-1.5c-0.5,0-0.6-0.2-0.6-0.6v-9.3c0-0.5,0.2-0.6,0.6-0.6h1.7
		c0.3,0,0.5,0.1,0.6,0.3l2.4,3.8c0.7,1,0.8,1.6,1.2,2.7h0.1c-0.5-1.5-0.7-2.2-0.7-3.8v-2.4c0-0.5,0.1-0.6,0.6-0.6h1.5
		C127.9,25.5,128,25.6,128,26.1z"/>
	<path class="st0" d="M129.8,25.5h1.7c0.4,0,0.6,0.1,0.6,0.6v9.3c0,0.4-0.1,0.6-0.6,0.6h-1.7c-0.4,0-0.6-0.1-0.6-0.6v-9.3
		C129.2,25.6,129.3,25.5,129.8,25.5z"/>
	<path class="st0" d="M140.8,26.1v1.3c0,0.5-0.2,0.6-0.6,0.6h-3.9v1.7h3.1c0.5,0,0.6,0.2,0.6,0.6v1.3c0,0.5-0.2,0.6-0.6,0.6h-3.1v3
		c0,0.5-0.1,0.6-0.6,0.6h-1.7c-0.5,0-0.6-0.2-0.6-0.6v-9.3c0-0.5,0.2-0.6,0.6-0.6h6.2C140.6,25.5,140.8,25.6,140.8,26.1z"/>
	<path class="st0" d="M148.9,26.1v1.3c0,0.5-0.2,0.6-0.6,0.6h-3.9v1.3h3.1c0.5,0,0.6,0.2,0.6,0.6v1.3c0,0.5-0.2,0.6-0.6,0.6h-3.1
		v1.4h4c0.5,0,0.6,0.1,0.6,0.6v1.3c0,0.5-0.2,0.6-0.6,0.6h-6.3c-0.5,0-0.6-0.2-0.6-0.6v-9.3c0-0.5,0.2-0.6,0.6-0.6h6.2
		C148.8,25.5,148.9,25.6,148.9,26.1z"/>
	<path class="st0" d="M60.6,39.1c2.3,0,3.7,0.7,4.4,2.2c0.2,0.5,0.1,0.7-0.4,0.9L63,42.9c-0.4,0.2-0.6,0.1-0.9-0.3
		c-0.3-0.6-0.9-0.8-1.6-0.8c-1.1,0-1.5,0.3-1.5,0.8c0,0.7,0.9,0.8,2.1,1c1.8,0.3,4.2,0.7,4.2,3.7c0,2.3-2.1,3.6-4.9,3.6
		c-2.4,0-4-0.8-4.6-2.5c-0.2-0.5,0-0.7,0.4-0.9l1.5-0.5c0.5-0.2,0.7-0.1,0.9,0.3c0.3,0.6,0.9,0.8,1.8,0.8c1.1,0,1.7-0.2,1.7-0.9
		c0-0.6-0.8-0.8-1.9-0.9c-1.9-0.3-4.4-0.6-4.4-3.7C55.9,40.6,57.5,39.1,60.6,39.1z"/>
	<path class="st0" d="M75.2,40v9.9c0,0.5-0.2,0.7-0.7,0.7h-1.8c-0.5,0-0.7-0.2-0.7-0.7v-3.6H69v3.6c0,0.5-0.2,0.7-0.7,0.7h-1.8
		c-0.5,0-0.7-0.2-0.7-0.7V40c0-0.5,0.2-0.7,0.7-0.7h1.8c0.5,0,0.7,0.2,0.7,0.7v3.5H72V40c0-0.5,0.2-0.7,0.7-0.7h1.8
		C75,39.4,75.2,39.5,75.2,40z"/>
	<path class="st0" d="M85.7,50.6H84c-0.8,0-1.1-0.2-1.2-0.7l-0.4-1.1H79l-0.4,1.1c-0.2,0.5-0.4,0.7-1.2,0.7h-1.7
		c-0.5,0-0.6-0.2-0.4-0.6l3.6-10c0.2-0.5,0.4-0.6,0.8-0.6h1.8c0.5,0,0.7,0.1,0.8,0.5L86.1,50C86.3,50.4,86.1,50.6,85.7,50.6z
		 M80.8,42.3h-0.2c0,0,0,1.1-0.3,2.2l-0.6,1.9h2l-0.6-1.9C80.8,43.4,80.8,42.3,80.8,42.3z"/>
	<path class="st0" d="M95.5,43.2c0,1.6-0.6,2.7-1.7,3.3c0.2,0.2,0.3,0.4,0.4,0.7l1.4,2.7c0.2,0.4,0.1,0.8-0.4,0.8h-1.7
		c-0.8,0-1.2-0.2-1.5-0.8l-1-2.2c-0.3-0.5-0.5-0.8-1.2-0.8h-0.4v3.1c0,0.5-0.2,0.7-0.7,0.7H87c-0.5,0-0.7-0.2-0.7-0.7V40
		c0-0.5,0.2-0.7,0.7-0.7h4.5C93.9,39.4,95.5,40.7,95.5,43.2z M91.2,42.1h-1.7v2.1h1.7c0.7,0,1-0.4,1-1.1
		C92.2,42.5,91.9,42.1,91.2,42.1z"/>
	<path class="st0" d="M105.3,43.3c0,2.5-1.6,3.9-4,3.9h-1.9v2.7c0,0.5-0.2,0.7-0.7,0.7h-1.8c-0.5,0-0.7-0.2-0.7-0.7V40
		c0-0.5,0.2-0.7,0.7-0.7h4.4C103.7,39.4,105.3,40.8,105.3,43.3z M102.1,43.3c0-0.7-0.4-1.2-1.2-1.2h-1.6v2.3h1.6
		C101.6,44.5,102.1,44,102.1,43.3z"/>
	<path class="st0" d="M113.8,40v1.4c0,0.5-0.2,0.7-0.7,0.7h-4.2v1.4h3.3c0.5,0,0.7,0.2,0.7,0.7v1.4c0,0.5-0.2,0.7-0.7,0.7h-3.3v1.5
		h4.3c0.5,0,0.7,0.2,0.7,0.7v1.4c0,0.5-0.2,0.7-0.7,0.7h-6.8c-0.5,0-0.7-0.2-0.7-0.7V40c0-0.5,0.2-0.7,0.7-0.7h6.6
		C113.6,39.4,113.8,39.6,113.8,40z"/>
	<path class="st0" d="M123.9,40v9.9c0,0.5-0.2,0.7-0.7,0.7h-1.8c-0.3,0-0.5-0.1-0.6-0.3l-2.4-3.7c-0.7-1.1-1-1.8-1.4-3.3h-0.1
		c0.3,1.5,0.5,2.3,0.5,4.1v2.6c0,0.5-0.2,0.7-0.7,0.7h-1.6c-0.5,0-0.7-0.2-0.7-0.7V40c0-0.5,0.2-0.7,0.7-0.7h1.9
		c0.4,0,0.5,0.1,0.7,0.3l2.6,4c0.7,1.1,0.8,1.7,1.3,2.9h0.1c-0.5-1.6-0.7-2.4-0.7-4V40c0-0.5,0.2-0.7,0.7-0.7h1.6
		C123.8,39.4,123.9,39.6,123.9,40z"/>
	<path class="st0" d="M125.5,39.4h1.9c0.5,0,0.6,0.2,0.6,0.6v10c0,0.5-0.2,0.6-0.6,0.6h-1.9c-0.5,0-0.6-0.2-0.6-0.6V40
		C124.9,39.5,125,39.4,125.5,39.4z"/>
	<path class="st0" d="M138.5,40v9.9c0,0.5-0.2,0.7-0.7,0.7H136c-0.3,0-0.5-0.1-0.6-0.3l-2.4-3.7c-0.7-1.1-1-1.8-1.4-3.3h-0.1
		c0.3,1.5,0.5,2.3,0.5,4.1v2.6c0,0.5-0.2,0.7-0.7,0.7h-1.6c-0.5,0-0.7-0.2-0.7-0.7V40c0-0.5,0.2-0.7,0.7-0.7h1.9
		c0.4,0,0.5,0.1,0.7,0.3l2.6,4c0.7,1.1,0.8,1.7,1.3,2.9h0.1c-0.5-1.6-0.7-2.4-0.7-4V40c0-0.5,0.2-0.7,0.7-0.7h1.6
		C138.3,39.4,138.5,39.6,138.5,40z"/>
	<path class="st0" d="M148.9,44.8v2.1c0,2.2-1.7,3.9-4.9,3.9s-4.9-1.7-4.9-4.4v-2.8c0-2.7,1.8-4.4,4.9-4.4c2.4,0,4,1,4.6,2.8
		c0.2,0.5,0,0.7-0.4,0.9l-1.7,0.6c-0.5,0.2-0.7,0.1-0.9-0.4c-0.3-0.7-0.8-1-1.6-1c-1.2,0-1.7,0.5-1.7,1.6v2.9c0,1.1,0.5,1.6,1.7,1.6
		c1.1,0,1.7-0.4,1.7-1.1v-0.3h-1.5c-0.5,0-0.7-0.2-0.7-0.7v-1.2c0-0.5,0.2-0.7,0.7-0.7h4C148.7,44.2,148.9,44.3,148.9,44.8z"/>
</g>
</svg>
