<?xml version="1.0" encoding="utf-8"?>
<!-- Generator: Adobe Illustrator 23.1.1, SVG Export Plug-In . SVG Version: 6.00 Build 0)  -->
<svg version="1.1" id="Layer_1" xmlns="http://www.w3.org/2000/svg" xmlns:xlink="http://www.w3.org/1999/xlink" x="0px" y="0px"
	 viewBox="0 0 150 43.7" style="enable-background:new 0 0 150 43.7;" xml:space="preserve">
<style type="text/css">
	.st0{fill:#FFFFFF;}
</style>
<g>
	<path class="st0" d="M13.4,13.6c0.2,0,0.4-0.2,0.5-0.5c0-0.3-0.2-0.5-0.5-0.5c-0.3,0-0.5,0.2-0.5,0.5
		C12.9,13.4,13.1,13.6,13.4,13.6z"/>
	<circle class="st0" cx="10.7" cy="18" r="0.4"/>
	<path class="st0" d="M13.2,8.8C5.9,8.8,0,14.7,0,22s5.9,13.2,13.2,13.2c1.4,0,2.8-0.2,4-0.6l-4-6.8c-0.1-0.1-0.1-0.3,0.1-0.4
		l8.3-5.5l0.1-0.1c0.1,0,0.2-0.1,0.2,0c0.1,0,0.1,0.1,0.2,0.1l3.2,5.4c0.7-1.6,1.1-3.4,1.1-5.3C26.3,14.7,20.4,8.8,13.2,8.8z
		 M3.8,20.5c0-0.2,0.2-0.3,0.3-0.3h4.4c0.2,0,0.3,0.2,0.3,0.3c0,0.2-0.2,0.3-0.3,0.3H4.2C4,20.8,3.8,20.7,3.8,20.5z M6.4,24.3
		c0-0.2,0.2-0.3,0.3-0.3h3.6c0.2,0,0.3,0.2,0.3,0.3s-0.2,0.3-0.3,0.3H6.8C6.6,24.7,6.4,24.5,6.4,24.3z M13.2,30.4
		c0.2,0,0.3,0.2,0.3,0.3S13.4,31,13.2,31H7.6c-0.2,0-0.3-0.2-0.3-0.3s0.2-0.3,0.3-0.3H13.2z M13.9,26.2c-0.2-0.3-0.4-0.6-0.7-0.9
		c-1.1-1.7-1.4-2.8-1.6-3.7c-0.1-0.5-0.2-0.9-0.5-1.3c-0.3-0.6-0.7-0.8-1-0.9c-0.3-0.1-0.6-0.3-0.7-0.6l0,0
		c-0.2-0.4-0.3-0.8-0.2-1.1c0.1-0.4,0.3-0.7,0.7-0.9c0.3-0.2,0.7-0.3,1.1-0.1c0.4,0.1,0.7,0.3,0.9,0.7l4.3,7.4L13.9,26.2z
		 M17.6,23.8c-0.3-0.3-0.6-0.8-0.9-1.3c-1.4-2.1-1.7-3.5-2-4.6c-0.2-0.7-0.3-1.2-0.6-1.7c-0.4-0.8-0.9-1.1-1.3-1.2
		c-0.4-0.1-0.7-0.4-0.9-0.8l0-0.1c-0.3-0.4-0.3-0.9-0.2-1.4c0.1-0.5,0.4-0.9,0.8-1.1c0.4-0.2,0.9-0.3,1.4-0.2
		c0.5,0.1,0.9,0.4,1.1,0.8l5.6,9.6L17.6,23.8z"/>
</g>
<g>
	<g>
		<path class="st0" d="M39.3,15.7l-0.4,2.5c-0.4,2.4-2.1,3.8-4.9,3.8h-3.5c-0.5,0-0.6-0.1-0.5-0.6l1.6-9.2c0.1-0.5,0.2-0.6,0.7-0.6
			h3.4C38.4,11.6,39.7,13.3,39.3,15.7z M35.3,13.8h-1.6l-1.1,6h1.6c1.3,0,2.1-0.6,2.3-1.8l0.4-2.5C37.1,14.4,36.6,13.8,35.3,13.8z"
			/>
		<path class="st0" d="M48.2,12.2l-0.2,1c-0.1,0.4-0.2,0.6-0.7,0.6h-4.1l-0.3,1.9h3.4c0.4,0,0.6,0.1,0.5,0.6l-0.2,1
			c-0.1,0.5-0.3,0.6-0.7,0.6h-3.4l-0.4,2h4.3c0.4,0,0.6,0.2,0.5,0.6l-0.2,1C46.6,21.8,46.4,22,46,22h-6c-0.5,0-0.6-0.1-0.5-0.6
			l1.6-9.2c0.1-0.5,0.2-0.6,0.7-0.6h5.9C48.1,11.6,48.3,11.7,48.2,12.2z"/>
		<path class="st0" d="M57.8,12.2l-1.6,9.2c-0.1,0.5-0.2,0.6-0.7,0.6h-1.2c-0.3,0-0.4-0.1-0.5-0.3l-2.1-4.4
			c-0.5-1.1-0.7-2.3-0.7-2.7h-0.1c0,0.4,0.1,1.7-0.2,3.3L50,21.4C50,21.8,49.8,22,49.3,22h-1.1c-0.5,0-0.6-0.1-0.5-0.6l1.6-9.2
			c0.1-0.5,0.2-0.6,0.7-0.6h1.1c0.3,0,0.5,0.1,0.6,0.3l2.1,4.4c0.5,1.1,0.7,2.3,0.7,2.6h0.1c-0.1-0.5-0.2-1.7,0.1-3.2l0.6-3.5
			c0.1-0.5,0.2-0.6,0.7-0.6h1.1C57.7,11.6,57.8,11.7,57.8,12.2z"/>
		<path class="st0" d="M67.8,12.2l-5,9.3C62.6,21.9,62.4,22,62,22h-1.2c-0.4,0-0.6-0.1-0.6-0.5l-1.7-9.3c-0.1-0.4,0.1-0.6,0.5-0.6
			h1.1c0.7,0,0.9,0.1,0.9,0.5l0.7,5.5c0.1,0.8,0.1,1.8,0.1,1.8H62c0,0,0.3-0.9,0.7-1.7l2.7-5.5c0.2-0.4,0.4-0.5,1.1-0.5h1.1
			C68,11.6,68,11.8,67.8,12.2z"/>
		<path class="st0" d="M75.6,12.2l-0.2,1c-0.1,0.4-0.2,0.6-0.7,0.6h-4.1l-0.3,1.9h3.4c0.4,0,0.6,0.1,0.5,0.6l-0.2,1
			c-0.1,0.5-0.3,0.6-0.7,0.6h-3.4l-0.4,2h4.3c0.4,0,0.6,0.2,0.5,0.6l-0.2,1c-0.1,0.5-0.2,0.6-0.7,0.6h-6c-0.5,0-0.6-0.1-0.5-0.6
			l1.6-9.2c0.1-0.5,0.2-0.6,0.7-0.6h5.9C75.6,11.6,75.7,11.7,75.6,12.2z"/>
		<path class="st0" d="M84.4,15.1c-0.2,1.4-1,2.4-2.2,2.9c0.1,0.2,0.2,0.3,0.2,0.5l1,2.9c0.1,0.4,0,0.6-0.4,0.6h-1.2
			c-0.7,0-1-0.1-1.1-0.6L80,19.1c-0.2-0.7-0.3-0.9-1.2-0.9h-0.7l-0.6,3.1c-0.1,0.5-0.2,0.6-0.7,0.6h-1.2c-0.5,0-0.6-0.1-0.5-0.6
			l1.6-9.2c0.1-0.5,0.2-0.6,0.7-0.6h4C83.7,11.6,84.8,13,84.4,15.1z M81,13.8h-2l-0.4,2.4h2c0.8,0,1.3-0.4,1.4-1.2
			C82.1,14.2,81.7,13.8,81,13.8z"/>
		<path class="st0" d="M99,12.2l-1.6,9.2c-0.1,0.4-0.3,0.6-0.7,0.6h-1.1c-0.4,0-0.6-0.1-0.5-0.6l0.6-3.3c0.1-0.9,0.4-1.9,1.1-3.3
			h-0.1c-0.5,1-1.1,1.9-1.7,2.7l-1.3,1.9c-0.2,0.3-0.4,0.4-0.7,0.4h-0.6c-0.4,0-0.5-0.1-0.6-0.4L91,17.5c-0.3-0.8-0.5-1.7-0.6-2.7
			h-0.1c0.1,1.5,0,2.3-0.1,3.3l-0.6,3.3c-0.1,0.4-0.2,0.6-0.7,0.6h-1.1c-0.5,0-0.6-0.1-0.5-0.6l1.6-9.2c0.1-0.4,0.3-0.6,0.7-0.6h0.9
			c0.5,0,0.6,0.1,0.8,0.4l1.8,5l3.6-4.9c0.3-0.4,0.4-0.5,0.9-0.5h1.1C99,11.6,99.1,11.7,99,12.2z"/>
		<path class="st0" d="M104.6,11.4c2.8,0,4.1,1.7,3.7,4.1l-0.5,3c-0.4,2.4-2.1,3.8-4.9,3.8c-2.8,0-4.1-1.6-3.7-4l0.5-3
			C100.1,12.7,101.9,11.4,104.6,11.4z M104.3,13.6c-1.2,0-2,0.6-2.2,1.7l-0.5,3c-0.2,1.1,0.4,1.7,1.6,1.7c1.2,0,2-0.6,2.3-1.7l0.5-3
			C106.2,14.1,105.6,13.6,104.3,13.6z"/>
		<path class="st0" d="M117.5,14.5c-0.2,1-0.6,1.6-1.4,2.1l0,0.1c0.8,0.4,1.2,1.3,1,2.6c-0.3,1.9-2,2.8-3.9,2.8H109
			c-0.5,0-0.6-0.1-0.5-0.6l1.6-9.2c0.1-0.5,0.2-0.6,0.7-0.6h4.1C116.8,11.6,117.8,12.8,117.5,14.5z M113.7,17.7h-2.2l-0.4,2.1h2.2
			c0.7,0,1.2-0.3,1.3-1.1C114.7,18.1,114.4,17.7,113.7,17.7z M114.2,13.7h-2l-0.4,2h2c0.7,0,1.1-0.3,1.2-1
			C115.2,14,114.8,13.7,114.2,13.7z"/>
		<path class="st0" d="M120,11.6h1.2c0.4,0,0.6,0.1,0.5,0.6l-1.6,9.2c-0.1,0.4-0.2,0.6-0.7,0.6h-1.2c-0.4,0-0.6-0.1-0.5-0.6l1.6-9.2
			C119.4,11.7,119.6,11.6,120,11.6z"/>
		<path class="st0" d="M125.6,12.2l-1.3,7.6h3.8c0.4,0,0.6,0.2,0.5,0.6l-0.2,1c-0.1,0.5-0.3,0.6-0.7,0.6h-5.6
			c-0.5,0-0.6-0.1-0.5-0.6l1.6-9.2c0.1-0.5,0.2-0.6,0.7-0.6h1.2C125.6,11.6,125.7,11.7,125.6,12.2z"/>
		<path class="st0" d="M137.8,12.2l-0.2,1c-0.1,0.4-0.2,0.6-0.7,0.6h-4.1l-0.3,1.9h3.4c0.4,0,0.6,0.1,0.5,0.6l-0.2,1
			c-0.1,0.5-0.3,0.6-0.7,0.6h-3.4l-0.4,2h4.3c0.4,0,0.6,0.2,0.5,0.6l-0.2,1c-0.1,0.5-0.2,0.6-0.7,0.6h-6c-0.5,0-0.6-0.1-0.5-0.6
			l1.6-9.2c0.1-0.5,0.2-0.6,0.7-0.6h5.9C137.8,11.6,137.9,11.7,137.8,12.2z"/>
		<path class="st0" d="M36.7,34.4h-1.1c-0.7,0-0.9-0.1-1-0.5l-0.8-2.6c-0.2-0.6-0.4-0.8-1.2-0.8h-0.4l-0.6,3.4
			c-0.1,0.4-0.2,0.6-0.6,0.6h-1.1c-0.4,0-0.5-0.1-0.5-0.6l1.5-8.7c0.1-0.4,0.2-0.6,0.7-0.6h1.1c0.4,0,0.5,0.1,0.5,0.6l-0.6,3.3h0.2
			h0.2l3-3.4c0.4-0.4,0.5-0.5,1.2-0.5h1.2c0.4,0,0.4,0.3,0.2,0.6l-3.6,3.9c0.5,0.3,0.8,0.7,1,1.4l1.2,3.4
			C37.2,34.1,37.1,34.4,36.7,34.4z"/>
		<path class="st0" d="M47.3,25.2l-1.5,8.7c-0.1,0.4-0.2,0.6-0.7,0.6H44c-0.3,0-0.4-0.1-0.5-0.3l-2-4.1c-0.5-1-0.6-2.2-0.7-2.6h-0.1
			c0,0.4,0.1,1.6-0.2,3.1L40,33.8c-0.1,0.4-0.2,0.6-0.7,0.6h-1.1c-0.4,0-0.5-0.1-0.5-0.6l1.5-8.7c0.1-0.4,0.2-0.6,0.7-0.6H41
			c0.3,0,0.4,0.1,0.5,0.3l2,4.2c0.5,1,0.6,2.2,0.7,2.5h0.1c-0.1-0.4-0.2-1.6,0.1-3l0.6-3.3c0.1-0.4,0.2-0.6,0.6-0.6h1.1
			C47.2,24.6,47.3,24.7,47.3,25.2z"/>
		<path class="st0" d="M49.2,24.6h1.1c0.4,0,0.5,0.1,0.5,0.6l-1.5,8.7c-0.1,0.4-0.2,0.6-0.6,0.6h-1.1c-0.4,0-0.5-0.1-0.5-0.6
			l1.5-8.7C48.6,24.7,48.8,24.6,49.2,24.6z"/>
		<path class="st0" d="M58.8,25.2l-0.2,0.9c-0.1,0.4-0.2,0.6-0.7,0.6h-3.9l-0.3,2h3.2c0.4,0,0.5,0.1,0.5,0.6l-0.2,0.9
			c-0.1,0.4-0.2,0.6-0.7,0.6h-3.2l-0.6,3.2c-0.1,0.4-0.2,0.6-0.6,0.6H51c-0.4,0-0.5-0.1-0.5-0.6l1.5-8.7c0.1-0.4,0.2-0.6,0.7-0.6
			h5.5C58.7,24.6,58.9,24.7,58.8,25.2z"/>
		<path class="st0" d="M66.3,25.2l-0.2,0.9c-0.1,0.4-0.2,0.6-0.7,0.6h-3.9l-0.3,1.8h3.2c0.4,0,0.5,0.1,0.5,0.6l-0.2,0.9
			c-0.1,0.4-0.2,0.6-0.7,0.6h-3.2l-0.3,1.9h4c0.4,0,0.5,0.2,0.5,0.6l-0.2,0.9c-0.1,0.4-0.2,0.6-0.6,0.6h-5.7c-0.4,0-0.5-0.1-0.5-0.6
			l1.5-8.7c0.1-0.4,0.2-0.6,0.7-0.6h5.5C66.2,24.6,66.4,24.7,66.3,25.2z"/>
		<path class="st0" d="M73.3,24.4c2,0,2.9,0.9,3.3,2.1c0.1,0.4,0,0.5-0.4,0.7l-1.1,0.4c-0.4,0.2-0.5,0.1-0.7-0.3
			c-0.2-0.6-0.6-0.9-1.5-0.9c-1.1,0-1.7,0.3-1.8,1c-0.1,0.7,0.8,0.9,1.9,1c1.6,0.2,3.4,0.9,3,3.3c-0.3,1.9-1.8,2.9-4.5,2.9
			c-2.2,0-3.3-0.8-3.6-2.2c-0.1-0.4,0.1-0.6,0.5-0.7l1.1-0.4c0.4-0.2,0.6-0.1,0.7,0.3c0.2,0.6,0.7,1,1.6,1c1.2,0,1.9-0.3,2-1.1
			c0.1-0.7-0.7-0.9-1.7-1c-1.6-0.2-3.7-0.7-3.2-3.3C69.3,25.5,70.7,24.4,73.3,24.4z"/>
		<path class="st0" d="M85.8,25.2l-1.5,8.7c-0.1,0.4-0.2,0.6-0.6,0.6h-1.1c-0.4,0-0.5-0.1-0.5-0.6l0.6-3.4h-3.3l-0.6,3.4
			c-0.1,0.4-0.2,0.6-0.7,0.6h-1.1c-0.4,0-0.5-0.1-0.5-0.6l1.5-8.7c0.1-0.4,0.2-0.6,0.7-0.6h1.1c0.4,0,0.5,0.1,0.5,0.6l-0.6,3.2H83
			l0.6-3.2c0.1-0.4,0.2-0.6,0.7-0.6h1.1C85.8,24.6,85.9,24.7,85.8,25.2z"/>
		<path class="st0" d="M93.4,34.4h-1c-0.7,0-0.9-0.1-0.9-0.5l-0.2-1.3h-3.4l-0.7,1.3c-0.2,0.4-0.4,0.5-1.1,0.5h-1
			c-0.4,0-0.5-0.2-0.3-0.6l4.9-8.8c0.2-0.4,0.4-0.5,0.8-0.5h1.1c0.4,0,0.6,0.1,0.6,0.4l1.7,8.8C94,34.2,93.8,34.4,93.4,34.4z
			 M90.7,26.7h-0.1c0,0-0.2,1-0.7,2l-1.1,2.2h2.2l-0.3-2.1C90.6,27.6,90.7,26.7,90.7,26.7z"/>
		<path class="st0" d="M103.1,27.9c-0.2,1.4-1,2.2-2.1,2.7c0.1,0.2,0.2,0.3,0.2,0.5l1,2.7c0.1,0.3,0,0.6-0.4,0.6h-1.1
			c-0.7,0-0.9-0.1-1.1-0.5L99,31.7c-0.2-0.6-0.3-0.8-1.1-0.8h-0.7l-0.5,2.9c-0.1,0.4-0.2,0.6-0.6,0.6h-1.1c-0.4,0-0.5-0.1-0.5-0.6
			l1.5-8.7c0.1-0.4,0.2-0.6,0.7-0.6h3.8C102.4,24.6,103.5,25.9,103.1,27.9z M99.9,26.7h-1.9l-0.4,2.3h1.9c0.7,0,1.2-0.4,1.3-1.1
			C100.9,27.1,100.6,26.7,99.9,26.7z"/>
		<path class="st0" d="M111.7,28.1c-0.4,2.1-1.8,3.1-3.9,3.1h-2l-0.5,2.6c-0.1,0.4-0.2,0.6-0.6,0.6h-1.1c-0.4,0-0.5-0.1-0.5-0.6
			l1.5-8.7c0.1-0.4,0.2-0.6,0.7-0.6h3.7C111,24.6,112.1,26,111.7,28.1z M109.4,27.9c0.1-0.8-0.3-1.3-1.1-1.3h-1.8l-0.4,2.5h1.8
			C108.7,29.2,109.3,28.7,109.4,27.9z"/>
		<path class="st0" d="M119.7,25.2l-0.2,0.9c-0.1,0.4-0.2,0.6-0.7,0.6H115l-0.3,1.8h3.2c0.4,0,0.5,0.1,0.5,0.6l-0.2,0.9
			c-0.1,0.4-0.2,0.6-0.7,0.6h-3.2l-0.3,1.9h4c0.4,0,0.5,0.2,0.5,0.6l-0.2,0.9c-0.1,0.4-0.2,0.6-0.6,0.6h-5.7c-0.4,0-0.5-0.1-0.5-0.6
			l1.5-8.7c0.1-0.4,0.2-0.6,0.7-0.6h5.5C119.6,24.6,119.8,24.7,119.7,25.2z"/>
		<path class="st0" d="M128.6,25.2l-1.5,8.7c-0.1,0.4-0.2,0.6-0.7,0.6h-1.1c-0.3,0-0.4-0.1-0.5-0.3l-2-4.1c-0.5-1-0.6-2.2-0.7-2.6
			H122c0,0.4,0.1,1.6-0.2,3.1l-0.6,3.3c-0.1,0.4-0.2,0.6-0.7,0.6h-1.1c-0.4,0-0.5-0.1-0.5-0.6l1.5-8.7c0.1-0.4,0.2-0.6,0.7-0.6h1.1
			c0.3,0,0.4,0.1,0.5,0.3l2,4.2c0.5,1,0.6,2.2,0.7,2.5h0.1c-0.1-0.4-0.2-1.6,0.1-3l0.6-3.3c0.1-0.4,0.2-0.6,0.6-0.6h1.1
			C128.6,24.6,128.7,24.7,128.6,25.2z"/>
		<path class="st0" d="M130.6,24.6h1.1c0.4,0,0.5,0.1,0.5,0.6l-1.5,8.7c-0.1,0.4-0.2,0.6-0.6,0.6h-1.1c-0.4,0-0.5-0.1-0.5-0.6
			l1.5-8.7C130,24.7,130.1,24.6,130.6,24.6z"/>
		<path class="st0" d="M141.4,25.2l-1.5,8.7c-0.1,0.4-0.2,0.6-0.7,0.6h-1.1c-0.3,0-0.4-0.1-0.5-0.3l-2-4.1c-0.5-1-0.6-2.2-0.7-2.6
			h-0.1c0,0.4,0.1,1.6-0.2,3.1l-0.6,3.3c-0.1,0.4-0.2,0.6-0.7,0.6h-1.1c-0.4,0-0.5-0.1-0.5-0.6l1.5-8.7c0.1-0.4,0.2-0.6,0.7-0.6h1.1
			c0.3,0,0.4,0.1,0.5,0.3l2,4.2c0.5,1,0.6,2.2,0.7,2.5h0.1c-0.1-0.4-0.2-1.6,0.1-3l0.6-3.3c0.1-0.4,0.2-0.6,0.6-0.6h1.1
			C141.4,24.6,141.5,24.7,141.4,25.2z"/>
		<path class="st0" d="M149.8,29.4l-0.4,2c-0.3,1.9-2,3.1-4.6,3.1s-3.8-1.6-3.4-3.9l0.5-2.8c0.4-2.3,2.1-3.5,4.7-3.5
			c2,0,3,1,3.3,2.3c0.1,0.4,0,0.6-0.4,0.7l-1,0.3c-0.4,0.1-0.6,0.1-0.7-0.3c-0.1-0.7-0.6-1-1.6-1c-1.2,0-1.9,0.6-2.1,1.6l-0.5,2.8
			c-0.2,1.1,0.3,1.6,1.5,1.6c1.2,0,1.9-0.5,2.1-1.2l0.1-0.5h-1.7c-0.4,0-0.5-0.1-0.5-0.6l0.2-0.9c0.1-0.4,0.2-0.6,0.7-0.6h3.3
			C149.8,28.9,149.9,29,149.8,29.4z"/>
	</g>
</g>
</svg>
