<?xml version="1.0" encoding="utf-8"?>
<!-- Generator: Adobe Illustrator 23.1.1, SVG Export Plug-In . SVG Version: 6.00 Build 0)  -->
<svg version="1.1" id="Layer_1" xmlns="http://www.w3.org/2000/svg" xmlns:xlink="http://www.w3.org/1999/xlink" x="0px" y="0px"
	 viewBox="0 0 150 10.3" style="enable-background:new 0 0 150 10.3;" xml:space="preserve">
<style type="text/css">
	.st0{fill:#FFFFFF;}
</style>
<g>
	<g>
		<path class="st0" d="M6.1,4.3L5.7,6.1C5.5,7.7,4.3,8.5,2.5,8.5H0.3C0,8.5,0,8.5,0,8.2L1.1,2c0-0.2,0.1-0.3,0.4-0.3h2.2
			C5.5,1.6,6.3,2.7,6.1,4.3z M3.5,2.8H2.2L1.4,7.4h1.3c1,0,1.7-0.5,1.9-1.4l0.3-1.8C5,3.3,4.5,2.8,3.5,2.8z"/>
		<path class="st0" d="M11.7,2l-0.1,0.5c0,0.2-0.1,0.3-0.4,0.3h-3L7.9,4.5h2.5c0.2,0,0.3,0.1,0.3,0.3l-0.1,0.5
			c0,0.2-0.1,0.3-0.4,0.3H7.7L7.4,7.4h3.1c0.2,0,0.3,0.1,0.3,0.3l-0.1,0.5c0,0.2-0.1,0.3-0.4,0.3h-4C6,8.5,6,8.5,6,8.2L7.1,2
			c0-0.2,0.1-0.3,0.4-0.3h3.9C11.6,1.6,11.7,1.7,11.7,2z"/>
		<path class="st0" d="M17.7,2l-1.1,6.3c0,0.2-0.1,0.3-0.4,0.3h-0.6c-0.2,0-0.2,0-0.3-0.2l-1.8-3.5c-0.3-0.7-0.5-1.6-0.5-1.6h-0.1
			c0,0.1,0,1-0.1,1.9l-0.5,3.1c0,0.2-0.1,0.3-0.4,0.3h-0.5c-0.2,0-0.3-0.1-0.3-0.3L12.3,2c0-0.2,0.1-0.3,0.4-0.3h0.5
			c0.2,0,0.3,0.1,0.3,0.2l1.7,3.5c0.4,0.7,0.5,1.6,0.5,1.7h0.1c0-0.1,0-1,0.1-2l0.5-3c0-0.2,0.1-0.3,0.4-0.3h0.5
			C17.7,1.6,17.7,1.7,17.7,2z"/>
		<path class="st0" d="M24,1.9l-3.5,6.3c-0.1,0.2-0.2,0.3-0.5,0.3h-0.5c-0.2,0-0.3,0-0.4-0.3L18,1.9c0-0.2,0-0.3,0.3-0.3h0.5
			c0.4,0,0.5,0.1,0.5,0.3L20,6.1c0.1,0.5,0.1,1,0.1,1h0.1c0,0,0.2-0.6,0.4-1l2.2-4.2c0.1-0.2,0.2-0.3,0.6-0.3h0.5
			C24.1,1.6,24.1,1.7,24,1.9z"/>
		<path class="st0" d="M28.9,2l-0.1,0.5c0,0.2-0.1,0.3-0.4,0.3h-3l-0.3,1.7h2.5c0.2,0,0.3,0.1,0.3,0.3l-0.1,0.5
			c0,0.2-0.1,0.3-0.4,0.3h-2.5l-0.3,1.8h3.1c0.2,0,0.3,0.1,0.3,0.3l-0.1,0.5c0,0.2-0.1,0.3-0.4,0.3h-4c-0.2,0-0.3-0.1-0.3-0.3
			L24.3,2c0-0.2,0.1-0.3,0.4-0.3h3.9C28.8,1.6,28.9,1.7,28.9,2z"/>
		<path class="st0" d="M34.3,3.8c-0.2,1-0.8,1.6-1.6,1.9C32.8,5.8,32.9,6,33,6.2l0.7,2.1c0.1,0.2,0,0.3-0.2,0.3h-0.6
			c-0.4,0-0.5,0-0.6-0.3l-0.5-1.7c-0.2-0.5-0.3-0.7-1-0.7H30l-0.4,2.3c0,0.2-0.1,0.3-0.4,0.3h-0.6c-0.2,0-0.3-0.1-0.3-0.3L29.5,2
			c0-0.2,0.1-0.3,0.4-0.3h2.7C33.9,1.6,34.6,2.5,34.3,3.8z M32.2,2.8h-1.7l-0.4,2h1.7c0.7,0,1.1-0.4,1.2-1
			C33.2,3.1,32.9,2.8,32.2,2.8z"/>
		<path class="st0" d="M43.6,2l-1.1,6.3c0,0.2-0.1,0.3-0.4,0.3h-0.5c-0.3,0-0.3-0.1-0.3-0.3l0.5-3c0.1-0.6,0.3-1.2,0.6-1.9h-0.1
			C42,4,41.6,4.5,41.2,5.1L40,6.8C39.8,6.9,39.7,7,39.5,7h-0.3c-0.2,0-0.3,0-0.3-0.2l-0.7-1.7c-0.2-0.6-0.3-1-0.4-1.8h-0.1
			c0,0.8,0,1.3-0.1,1.9l-0.5,3c0,0.2-0.1,0.3-0.4,0.3h-0.5c-0.2,0-0.3-0.1-0.3-0.3L37,2c0-0.2,0.1-0.3,0.4-0.3h0.4
			c0.3,0,0.4,0,0.4,0.3l1.4,3.6l2.7-3.6c0.1-0.2,0.2-0.3,0.5-0.3h0.5C43.5,1.6,43.6,1.7,43.6,2z"/>
		<path class="st0" d="M47.1,1.5c1.8,0,2.6,1.1,2.3,2.6l-0.4,2.1c-0.3,1.6-1.4,2.4-3.2,2.4c-1.8,0-2.6-1-2.4-2.6l0.4-2.1
			C44.2,2.4,45.3,1.5,47.1,1.5z M46.9,2.6c-1,0-1.6,0.5-1.8,1.4l-0.4,2.1c-0.2,0.9,0.3,1.4,1.3,1.4c1,0,1.6-0.5,1.8-1.4L48.2,4
			C48.4,3.1,47.9,2.6,46.9,2.6z"/>
		<path class="st0" d="M55.3,3.5c-0.1,0.7-0.4,1.1-1,1.4l0,0c0.6,0.2,0.8,0.9,0.7,1.7c-0.2,1.2-1.2,1.8-2.5,1.8h-2.8
			c-0.2,0-0.3-0.1-0.3-0.3L50.5,2c0-0.2,0.1-0.3,0.4-0.3h2.7C54.8,1.6,55.5,2.4,55.3,3.5z M52.9,5.6h-1.8l-0.3,1.8h1.8
			c0.6,0,1-0.3,1.1-0.9C53.8,5.9,53.5,5.6,52.9,5.6z M53.2,2.8h-1.7l-0.3,1.7h1.7c0.6,0,0.9-0.3,1.1-0.9C54.1,3,53.8,2.8,53.2,2.8z"
			/>
		<path class="st0" d="M56.7,1.6h0.6c0.2,0,0.3,0.1,0.3,0.3l-1.1,6.3c0,0.2-0.1,0.3-0.4,0.3h-0.6c-0.2,0-0.3-0.1-0.3-0.3L56.3,2
			C56.4,1.7,56.5,1.6,56.7,1.6z"/>
		<path class="st0" d="M59.7,2l-1,5.4h2.8c0.3,0,0.3,0.1,0.3,0.3l-0.1,0.5c0,0.2-0.1,0.3-0.4,0.3h-3.7c-0.2,0-0.3-0.1-0.3-0.3
			L58.4,2c0-0.2,0.1-0.3,0.4-0.3h0.6C59.6,1.6,59.7,1.7,59.7,2z"/>
		<path class="st0" d="M67.6,2l-0.1,0.5c0,0.2-0.1,0.3-0.4,0.3h-3l-0.3,1.7h2.5c0.2,0,0.3,0.1,0.3,0.3l-0.1,0.5
			c0,0.2-0.1,0.3-0.4,0.3h-2.5l-0.3,1.8h3.1c0.2,0,0.3,0.1,0.3,0.3l-0.1,0.5c0,0.2-0.1,0.3-0.4,0.3h-4c-0.2,0-0.3-0.1-0.3-0.3
			L63.1,2c0-0.2,0.1-0.3,0.4-0.3h3.9C67.6,1.6,67.7,1.7,67.6,2z"/>
		<path class="st0" d="M73.8,8.5h-0.6c-0.4,0-0.5,0-0.6-0.3l-0.6-2c-0.2-0.5-0.4-0.7-1-0.7h-0.5L70,8.2c0,0.2-0.1,0.3-0.4,0.3h-0.6
			c-0.2,0-0.3-0.1-0.3-0.3L69.9,2c0-0.2,0.1-0.3,0.4-0.3h0.6c0.2,0,0.3,0.1,0.3,0.3l-0.4,2.5h0.4h0.1l2.4-2.6
			c0.2-0.2,0.3-0.3,0.7-0.3H75c0.2,0,0.3,0.2,0.1,0.3l-2.7,2.8c0.5,0.2,0.7,0.5,0.9,1.1l0.8,2.4C74.1,8.4,74.1,8.5,73.8,8.5z"/>
		<path class="st0" d="M81,2l-1.1,6.3c0,0.2-0.1,0.3-0.4,0.3h-0.6c-0.2,0-0.2,0-0.3-0.2l-1.8-3.5c-0.3-0.7-0.5-1.6-0.5-1.6h-0.1
			c0,0.1,0,1-0.1,1.9l-0.5,3.1c0,0.2-0.1,0.3-0.4,0.3h-0.5c-0.2,0-0.3-0.1-0.3-0.3L75.5,2c0-0.2,0.1-0.3,0.4-0.3h0.5
			c0.2,0,0.3,0.1,0.3,0.2l1.7,3.5C78.9,6,79,6.9,79,6.9h0.1c0-0.1,0-1,0.1-2l0.5-3c0-0.2,0.1-0.3,0.4-0.3h0.5C80.9,1.6,81,1.7,81,2z
			"/>
		<path class="st0" d="M82.2,1.6h0.6c0.2,0,0.3,0.1,0.3,0.3L82,8.2c0,0.2-0.1,0.3-0.4,0.3H81c-0.2,0-0.3-0.1-0.3-0.3L81.9,2
			C81.9,1.7,82,1.6,82.2,1.6z"/>
		<path class="st0" d="M88.5,2l-0.1,0.5c0,0.2-0.1,0.3-0.4,0.3h-3l-0.3,1.8h2.5c0.2,0,0.3,0.1,0.3,0.3l-0.1,0.5
			c0,0.3-0.1,0.3-0.4,0.3h-2.5l-0.4,2.5c0,0.2-0.1,0.3-0.4,0.3h-0.6c-0.2,0-0.3-0.1-0.3-0.3L84,2c0-0.2,0.1-0.3,0.4-0.3h3.9
			C88.5,1.6,88.6,1.7,88.5,2z"/>
		<path class="st0" d="M93.5,2l-0.1,0.5c0,0.2-0.1,0.3-0.4,0.3h-3l-0.3,1.7h2.5c0.2,0,0.3,0.1,0.3,0.3l-0.1,0.5
			c0,0.2-0.1,0.3-0.4,0.3h-2.5l-0.3,1.8h3.1c0.2,0,0.3,0.1,0.3,0.3l-0.1,0.5c0,0.2-0.1,0.3-0.4,0.3h-4c-0.2,0-0.3-0.1-0.3-0.3L89,2
			c0-0.2,0.1-0.3,0.4-0.3h3.9C93.5,1.6,93.6,1.7,93.5,2z"/>
		<path class="st0" d="M98.3,1.5c1.4,0,2,0.6,2.3,1.5c0.1,0.2,0,0.3-0.2,0.4l-0.5,0.2c-0.2,0.1-0.3,0.1-0.4-0.2
			c-0.2-0.5-0.5-0.8-1.3-0.8c-1,0-1.5,0.3-1.6,0.9c-0.1,0.7,0.6,0.8,1.5,0.9c1.1,0.1,2.4,0.6,2.1,2.2c-0.2,1.3-1.2,2-3.1,2
			c-1.5,0-2.3-0.6-2.5-1.6c0-0.2,0-0.4,0.3-0.4l0.6-0.2c0.2-0.1,0.3,0,0.4,0.2c0.1,0.6,0.6,0.9,1.4,0.9c1,0,1.6-0.3,1.7-1
			c0.1-0.7-0.6-0.8-1.4-0.9c-1.2-0.1-2.5-0.5-2.2-2.2C95.5,2.2,96.5,1.5,98.3,1.5z"/>
		<path class="st0" d="M106.8,2l-1.1,6.3c0,0.2-0.1,0.3-0.4,0.3h-0.6c-0.2,0-0.3-0.1-0.3-0.3l0.5-2.6H102l-0.4,2.6
			c0,0.2-0.1,0.3-0.4,0.3h-0.6c-0.2,0-0.3-0.1-0.3-0.3l1.1-6.3c0-0.2,0.1-0.3,0.4-0.3h0.6c0.2,0,0.3,0.1,0.3,0.3l-0.4,2.5h2.9
			l0.4-2.5c0-0.2,0.1-0.3,0.4-0.3h0.6C106.8,1.6,106.9,1.7,106.8,2z"/>
		<path class="st0" d="M111.9,8.5h-0.5c-0.4,0-0.5-0.1-0.6-0.3L110.7,7H108l-0.7,1.3c-0.1,0.2-0.2,0.3-0.7,0.3h-0.5
			c-0.2,0-0.3-0.1-0.2-0.3l3.6-6.3c0.1-0.2,0.2-0.3,0.4-0.3h0.5c0.2,0,0.3,0,0.4,0.3l1.3,6.3C112.2,8.4,112.2,8.5,111.9,8.5z
			 M110.1,2.7L110.1,2.7c-0.1,0-0.2,0.6-0.5,1.2L108.5,6h2l-0.4-2.1C110,3.3,110.1,2.8,110.1,2.7z"/>
		<path class="st0" d="M118.5,3.8c-0.2,1-0.8,1.6-1.6,1.9c0.1,0.1,0.2,0.3,0.2,0.4l0.7,2.1c0.1,0.2,0,0.3-0.2,0.3H117
			c-0.4,0-0.5,0-0.6-0.3l-0.5-1.7c-0.2-0.5-0.3-0.7-1-0.7h-0.8l-0.4,2.3c0,0.2-0.1,0.3-0.4,0.3h-0.6c-0.2,0-0.3-0.1-0.3-0.3l1.1-6.3
			c0-0.2,0.1-0.3,0.4-0.3h2.7C118,1.6,118.7,2.5,118.5,3.8z M116.4,2.8h-1.7l-0.4,2h1.7c0.7,0,1.1-0.4,1.2-1
			C117.3,3.1,117,2.8,116.4,2.8z"/>
		<path class="st0" d="M124.3,4c-0.2,1.4-1.3,2.1-2.7,2.1h-1.7l-0.4,2.1c0,0.2-0.1,0.3-0.4,0.3h-0.6c-0.2,0-0.3-0.1-0.3-0.3l1.1-6.3
			c0-0.2,0.1-0.3,0.4-0.3h2.6C123.8,1.6,124.6,2.6,124.3,4z M123.1,3.9c0.1-0.7-0.2-1.1-0.9-1.1h-1.6L120.1,5h1.6
			C122.4,5,122.9,4.6,123.1,3.9z"/>
		<path class="st0" d="M129.7,2l-0.1,0.5c0,0.2-0.1,0.3-0.4,0.3h-3l-0.3,1.7h2.5c0.2,0,0.3,0.1,0.3,0.3l-0.1,0.5
			c0,0.2-0.1,0.3-0.4,0.3h-2.5l-0.3,1.8h3.1c0.2,0,0.3,0.1,0.3,0.3l-0.1,0.5c0,0.2-0.1,0.3-0.4,0.3h-4c-0.2,0-0.3-0.1-0.3-0.3
			l1.1-6.3c0-0.2,0.1-0.3,0.4-0.3h3.9C129.7,1.6,129.7,1.7,129.7,2z"/>
		<path class="st0" d="M135.7,2l-1.1,6.3c0,0.2-0.1,0.3-0.4,0.3h-0.6c-0.2,0-0.2,0-0.3-0.2l-1.8-3.5c-0.3-0.7-0.5-1.6-0.5-1.6h-0.1
			c0,0.1,0,1-0.1,1.9l-0.5,3.1c0,0.2-0.1,0.3-0.4,0.3h-0.5c-0.2,0-0.3-0.1-0.3-0.3l1.1-6.3c0-0.2,0.1-0.3,0.4-0.3h0.5
			c0.2,0,0.3,0.1,0.3,0.2l1.7,3.5c0.4,0.7,0.5,1.6,0.5,1.7h0.1c0-0.1,0-1,0.1-2l0.5-3c0-0.2,0.1-0.3,0.4-0.3h0.5
			C135.7,1.6,135.8,1.7,135.7,2z"/>
		<path class="st0" d="M137,1.6h0.6c0.2,0,0.3,0.1,0.3,0.3l-1.1,6.3c0,0.2-0.1,0.3-0.4,0.3h-0.6c-0.2,0-0.3-0.1-0.3-0.3l1.1-6.3
			C136.6,1.7,136.7,1.6,137,1.6z"/>
		<path class="st0" d="M144.1,2L143,8.2c0,0.2-0.1,0.3-0.4,0.3h-0.6c-0.2,0-0.2,0-0.3-0.2L140,4.8c-0.3-0.7-0.5-1.6-0.5-1.6h-0.1
			c0,0.1,0,1-0.1,1.9l-0.5,3.1c0,0.2-0.1,0.3-0.4,0.3h-0.5c-0.2,0-0.3-0.1-0.3-0.3l1.1-6.3c0-0.2,0.1-0.3,0.4-0.3h0.5
			c0.2,0,0.3,0.1,0.3,0.2l1.7,3.5c0.4,0.7,0.5,1.6,0.5,1.7h0.1c0-0.1,0-1,0.1-2l0.5-3c0-0.2,0.1-0.3,0.4-0.3h0.5
			C144.1,1.6,144.2,1.7,144.1,2z"/>
		<path class="st0" d="M149.8,5.1l-0.2,1.4c-0.2,1.4-1.4,2.2-3.2,2.2c-1.8,0-2.6-1.1-2.3-2.6l0.4-2.1c0.3-1.6,1.4-2.4,3.2-2.4
			c1.4,0,2.1,0.7,2.3,1.6c0,0.2,0,0.3-0.3,0.4l-0.5,0.2c-0.3,0.1-0.3,0-0.4-0.2c-0.1-0.6-0.5-0.9-1.3-0.9c-1,0-1.6,0.5-1.8,1.4
			l-0.4,2.2c-0.2,0.9,0.3,1.4,1.3,1.4c1,0,1.7-0.5,1.8-1.2l0.1-0.5H147c-0.2,0-0.3-0.1-0.3-0.3l0.1-0.5c0-0.3,0.1-0.3,0.4-0.3h2.3
			C149.8,4.8,149.9,4.8,149.8,5.1z"/>
	</g>
</g>
</svg>
